<svg width="479" height="470" viewBox="0 0 479 470" fill="none" xmlns="http://www.w3.org/2000/svg">
<g clip-path="url(#clip0_390_60)">
<path d="M169.877 118.47L238.288 0.82691L259.183 118.47H169.877Z" fill="#920D60" fill-opacity="0.57" stroke="black" strokeWidth="0.5779"/>
<path d="M260.342 118.447L310.173 113.891L238.701 2.27024L260.342 118.447Z" fill="#920D60" fill-opacity="0.57" stroke="black" strokeWidth="0.5779"/>
<path d="M134.322 181.211L168.098 124.25H260.444L272.473 192.125L134.322 181.211Z" fill="#FE736F" stroke="black" strokeWidth="0.5779"/>
<path d="M316.015 119.35L349.803 173.183L273.055 191.798L261.314 124.219L316.015 119.35Z" fill="#FE736F" stroke="black" strokeWidth="0.5779"/>
<path d="M98.4787 241.609L129.664 187.25L273.734 197.335L285.471 261.459L98.4787 241.609Z" fill="#FFAA59" stroke="black" strokeWidth="0.5779"/>
<path d="M286.051 261.408L274.599 197.278L351.575 178.034L384.202 228.691L286.051 261.408Z" fill="#FFAA59" stroke="black" strokeWidth="0.5779"/>
<path d="M61.202 302.011L93.2482 247.075L286.44 269.854L296.169 331.094L61.202 302.011Z" fill="#FEE064" stroke="black" strokeWidth="0.5779"/>
<path d="M297.031 331.013L287.303 269.498L386.258 235.554L414.558 279.577L297.031 331.013Z" fill="#FEE064" stroke="black" strokeWidth="0.5779"/>
<path d="M29.7004 358.655L60.0179 306.601L298.004 337.755L310.024 400.43L29.7004 358.655Z" fill="#9DCE65" stroke="black" strokeWidth="0.5779"/>
<path d="M311.457 400.337L298.866 337.951L419.211 283.249L447.8 327.563L311.457 400.337Z" fill="#9DCE65" stroke="black" strokeWidth="0.5779"/>
<path d="M0.457155 413.637L29.333 363.89L312.684 408.326L323.841 468.902L0.457155 413.637Z" fill="#63CFF3" stroke="black" strokeWidth="0.5779"/>
<path d="M324.461 468.79L313.019 408.151L451.007 332.675L478.15 374.677L324.461 468.79Z" fill="#63CFF3" stroke="black" strokeWidth="0.5779"/>
<path d="M185.587 106.553C185.587 105.363 185.852 104.299 186.384 103.363C186.927 102.415 187.661 101.681 188.586 101.161C189.522 100.63 190.568 100.364 191.724 100.364C193.076 100.364 194.261 100.711 195.278 101.404C196.295 102.098 197.006 103.057 197.41 104.282H194.619C194.342 103.704 193.949 103.271 193.44 102.982C192.943 102.693 192.365 102.548 191.707 102.548C191.002 102.548 190.372 102.716 189.817 103.051C189.274 103.375 188.846 103.837 188.534 104.438C188.233 105.039 188.083 105.744 188.083 106.553C188.083 107.351 188.233 108.056 188.534 108.668C188.846 109.269 189.274 109.737 189.817 110.073C190.372 110.396 191.002 110.558 191.707 110.558C192.365 110.558 192.943 110.414 193.44 110.125C193.949 109.824 194.342 109.385 194.619 108.807H197.41C197.006 110.044 196.295 111.009 195.278 111.702C194.272 112.384 193.088 112.725 191.724 112.725C190.568 112.725 189.522 112.465 188.586 111.945C187.661 111.413 186.927 110.679 186.384 109.743C185.852 108.807 185.587 107.744 185.587 106.553ZM205.725 112.621L203.055 107.905H201.911V112.621H199.484V100.52H204.026C204.962 100.52 205.76 100.687 206.418 101.023C207.077 101.346 207.568 101.791 207.892 102.358C208.227 102.912 208.395 103.536 208.395 104.23C208.395 105.027 208.164 105.75 207.701 106.397C207.239 107.033 206.551 107.472 205.638 107.715L208.534 112.621H205.725ZM201.911 106.085H203.939C204.598 106.085 205.089 105.929 205.413 105.617C205.736 105.293 205.898 104.848 205.898 104.282C205.898 103.727 205.736 103.3 205.413 102.999C205.089 102.687 204.598 102.531 203.939 102.531H201.911V106.085ZM213.017 102.479V105.513H217.092V107.437H213.017V110.645H217.612V112.621H210.59V100.503H217.612V102.479H213.017ZM227.238 110.315H222.418L221.62 112.621H219.072L223.423 100.503H226.249L230.601 112.621H228.035L227.238 110.315ZM226.579 108.374L224.828 103.311L223.077 108.374H226.579ZM240.463 100.52V102.479H237.238V112.621H234.811V102.479H231.586V100.52H240.463ZM244.661 102.479V105.513H248.735V107.437H244.661V110.645H249.255V112.621H242.234V100.503H249.255V102.479H244.661Z" fill="black"/>
<path d="M168.197 166.297L167.969 169.322L172.031 169.628L171.887 171.547L167.824 171.241L167.583 174.439L172.164 174.784L172.016 176.755L165.014 176.228L165.925 164.143L172.926 164.671L172.778 166.642L168.197 166.297ZM185.964 165.671L180.629 177.404L177.69 177.183L174.174 164.782L176.767 164.978L179.363 174.823L183.388 165.477L185.964 165.671ZM194.078 176.106L189.272 175.743L188.304 177.983L185.762 177.791L191.012 166.034L193.83 166.246L197.259 178.658L194.7 178.465L194.078 176.106ZM193.567 174.12L192.202 168.94L190.075 173.857L193.567 174.12ZM201.446 177.043L205.422 177.343L205.277 179.262L198.881 178.78L199.79 166.713L202.211 166.895L201.446 177.043ZM210.111 167.491L209.548 174.959C209.487 175.778 209.652 176.422 210.046 176.892C210.44 177.35 211.023 177.609 211.796 177.667C212.579 177.726 213.2 177.558 213.659 177.164C214.118 176.758 214.379 176.146 214.441 175.328L215.004 167.86L217.441 168.043L216.88 175.494C216.802 176.52 216.512 177.373 216.009 178.054C215.518 178.724 214.884 179.21 214.108 179.51C213.344 179.812 212.506 179.929 211.596 179.86C210.697 179.792 209.892 179.552 209.181 179.139C208.482 178.727 207.946 178.153 207.572 177.418C207.199 176.672 207.052 175.785 207.129 174.76L207.691 167.308L210.111 167.491ZM226.443 178.545L221.637 178.183L220.668 180.422L218.127 180.23L223.377 168.473L226.195 168.686L229.623 181.097L227.065 180.904L226.443 178.545ZM225.932 176.559L224.566 171.379L222.44 176.296L225.932 176.559ZM240.367 169.771L240.219 171.725L237.004 171.482L236.241 181.596L233.821 181.413L234.583 171.3L231.368 171.058L231.515 169.104L240.367 169.771ZM244.406 172.04L244.178 175.066L248.24 175.372L248.096 177.291L244.033 176.984L243.792 180.183L248.373 180.528L248.225 182.499L241.223 181.971L242.134 169.887L249.135 170.415L248.987 172.385L244.406 172.04Z" fill="black"/>
<path d="M164.469 237.341L159.673 236.863L158.651 239.079L156.115 238.826L161.645 227.198L164.457 227.478L167.587 239.968L165.034 239.714L164.469 237.341ZM164.005 235.343L162.764 230.132L160.521 234.996L164.005 235.343ZM179.505 241.155L177.09 240.914L172.444 232.106L171.621 240.37L169.206 240.129L170.406 228.07L172.821 228.311L177.466 237.136L178.29 228.855L180.705 229.096L179.505 241.155ZM189.504 239.833L184.708 239.355L183.686 241.571L181.15 241.318L186.681 229.691L189.493 229.97L192.622 242.46L190.069 242.206L189.504 239.833ZM189.041 237.835L187.8 232.624L185.556 237.488L189.041 237.835ZM196.847 240.947L200.815 241.342L200.624 243.257L194.241 242.622L195.44 230.58L197.855 230.82L196.847 240.947ZM212.933 232.321L208.08 239.766L207.662 243.958L205.247 243.717L205.665 239.525L202.357 231.269L205.083 231.54L207.123 237.301L210.241 232.053L212.933 232.321ZM215.796 242.712L221.214 243.251L221.011 245.287L212.799 244.469L212.985 242.606L219.178 234.999L213.795 234.463L213.998 232.427L222.21 233.245L222.024 235.108L215.796 242.712ZM226.487 235.639L226.186 238.658L230.24 239.062L230.05 240.977L225.996 240.573L225.678 243.765L230.25 244.22L230.054 246.187L223.067 245.491L224.267 233.432L231.254 234.128L231.058 236.094L226.487 235.639Z" fill="black"/>
<path d="M161.52 304.317L156.734 303.748L155.67 305.944L153.14 305.643L158.891 294.123L161.698 294.457L164.588 307.004L162.04 306.701L161.52 304.317ZM161.095 302.311L159.954 297.078L157.618 301.898L161.095 302.311ZM175.953 299.94C175.876 300.583 175.65 301.167 175.273 301.693C174.908 302.219 174.377 302.616 173.682 302.883C172.999 303.151 172.163 303.226 171.176 303.108L169.162 302.869L168.613 307.483L166.203 307.196L167.632 295.18L172.056 295.706C172.986 295.816 173.759 296.071 174.375 296.47C174.991 296.869 175.426 297.369 175.681 297.97C175.947 298.572 176.037 299.229 175.953 299.94ZM171.304 301.151C171.97 301.23 172.481 301.139 172.838 300.879C173.196 300.608 173.408 300.196 173.474 299.645C173.613 298.475 173.028 297.812 171.72 297.656L169.809 297.429L169.393 300.924L171.304 301.151ZM186.427 301.186C186.35 301.828 186.124 302.412 185.747 302.938C185.382 303.465 184.851 303.862 184.156 304.128C183.473 304.396 182.637 304.471 181.65 304.354L179.636 304.114L179.087 308.728L176.677 308.442L178.106 296.425L182.53 296.951C183.46 297.062 184.233 297.316 184.849 297.716C185.465 298.115 185.9 298.615 186.155 299.215C186.421 299.817 186.511 300.474 186.427 301.186ZM181.778 302.396C182.444 302.475 182.955 302.385 183.312 302.125C183.67 301.853 183.882 301.442 183.948 300.891C184.087 299.72 183.502 299.057 182.194 298.901L180.283 298.674L179.867 302.169L181.778 302.396ZM189.789 308.063L193.748 308.533L193.521 310.444L187.151 309.687L188.58 297.67L190.99 297.957L189.789 308.063ZM206.037 299.746L201.042 307.096L200.545 311.279L198.135 310.993L198.632 306.809L195.483 298.491L198.203 298.815L200.133 304.613L203.351 299.427L206.037 299.746Z" fill="black"/>
<path d="M117.205 351.068L116.088 358.474C115.965 359.285 116.083 359.94 116.44 360.438C116.799 360.924 117.362 361.226 118.127 361.341C118.905 361.458 119.536 361.337 120.023 360.978C120.511 360.608 120.817 360.017 120.939 359.205L122.056 351.799L124.473 352.164L123.359 359.553C123.206 360.57 122.853 361.399 122.3 362.04C121.761 362.672 121.093 363.109 120.296 363.351C119.512 363.595 118.668 363.649 117.765 363.513C116.873 363.379 116.089 363.079 115.411 362.614C114.744 362.152 114.252 361.54 113.934 360.779C113.618 360.006 113.537 359.112 113.69 358.094L114.805 350.706L117.205 351.068ZM135.222 366.023L132.822 365.661L128.626 356.63L127.388 364.842L124.988 364.48L126.795 352.497L129.195 352.859L133.388 361.907L134.629 353.678L137.029 354.04L135.222 366.023ZM143.581 355.046C144.839 355.235 145.904 355.647 146.779 356.282C147.665 356.918 148.296 357.732 148.672 358.724C149.062 359.706 149.166 360.797 148.985 361.997C148.804 363.197 148.383 364.209 147.721 365.033C147.072 365.847 146.231 366.427 145.197 366.774C144.174 367.122 143.034 367.201 141.777 367.012L137.594 366.381L139.398 354.415L143.581 355.046ZM141.999 364.959C143.256 365.148 144.279 364.952 145.068 364.37C145.857 363.787 146.346 362.873 146.534 361.628C146.722 360.382 146.525 359.359 145.945 358.558C145.366 357.746 144.448 357.245 143.191 357.056L141.493 356.8L140.302 364.703L141.999 364.959ZM153.794 358.567L153.342 361.567L157.371 362.175L157.084 364.078L153.055 363.47L152.577 366.642L157.12 367.327L156.825 369.281L149.882 368.234L151.689 356.251L158.632 357.298L158.337 359.252L153.794 358.567ZM165.178 370.541L163.241 365.48L162.109 365.309L161.406 369.972L159.006 369.61L160.811 357.644L165.302 358.322C166.228 358.461 166.991 358.746 167.593 359.176C168.196 359.594 168.615 360.107 168.851 360.715C169.1 361.314 169.172 361.956 169.069 362.642C168.95 363.43 168.614 364.11 168.06 364.681C167.508 365.241 166.763 365.573 165.824 365.676L167.955 370.96L165.178 370.541ZM162.381 363.509L164.387 363.812C165.038 363.91 165.547 363.829 165.913 363.569C166.282 363.297 166.508 362.881 166.593 362.321C166.675 361.772 166.579 361.325 166.304 360.98C166.03 360.623 165.568 360.396 164.917 360.297L162.911 359.995L162.381 363.509ZM174.102 372.01C173.267 371.884 172.535 371.627 171.903 371.24C171.284 370.854 170.82 370.363 170.512 369.767C170.205 369.172 170.101 368.507 170.199 367.774L172.771 368.162C172.731 368.659 172.844 369.073 173.109 369.405C173.386 369.739 173.799 369.948 174.348 370.03C174.908 370.115 175.367 370.05 175.727 369.835C176.088 369.609 176.302 369.279 176.367 368.845C176.421 368.49 176.356 368.182 176.174 367.921C175.991 367.66 175.743 367.441 175.431 367.266C175.132 367.08 174.708 366.864 174.161 366.618C173.418 366.272 172.818 365.954 172.359 365.663C171.913 365.362 171.547 364.962 171.26 364.462C170.986 363.954 170.906 363.322 171.02 362.568C171.127 361.859 171.397 361.269 171.83 360.796C172.264 360.324 172.821 359.999 173.503 359.821C174.186 359.632 174.939 359.6 175.762 359.724C176.996 359.91 177.95 360.364 178.625 361.085C179.312 361.796 179.615 362.695 179.533 363.782L176.893 363.383C176.932 362.969 176.806 362.605 176.514 362.292C176.235 361.969 175.828 361.767 175.29 361.686C174.822 361.616 174.427 361.679 174.105 361.876C173.794 362.074 173.604 362.402 173.536 362.86C173.487 363.18 173.55 363.464 173.723 363.712C173.909 363.95 174.146 364.161 174.434 364.345C174.735 364.519 175.158 364.735 175.704 364.992C176.446 365.338 177.046 365.662 177.503 365.965C177.96 366.268 178.331 366.674 178.616 367.185C178.902 367.696 178.988 368.322 178.876 369.065C178.78 369.705 178.525 370.275 178.11 370.773C177.696 371.272 177.144 371.638 176.454 371.873C175.766 372.097 174.982 372.142 174.102 372.01ZM190.383 362.104L190.09 364.041L186.902 363.56L185.389 373.589L182.989 373.227L184.502 363.198L181.313 362.718L181.605 360.78L190.383 362.104ZM198.01 373.161L193.244 372.442L192.112 374.603L189.592 374.223L195.702 362.889L198.496 363.31L200.992 375.942L198.455 375.56L198.01 373.161ZM197.648 371.142L196.672 365.875L194.185 370.62L197.648 371.142ZM212.835 377.728L210.435 377.366L206.239 368.335L205.001 376.547L202.601 376.185L204.408 364.202L206.808 364.564L211.001 373.612L212.242 365.383L214.642 365.745L212.835 377.728ZM221.194 366.751C222.451 366.941 223.517 367.353 224.392 367.987C225.278 368.623 225.909 369.437 226.285 370.429C226.675 371.411 226.779 372.502 226.598 373.703C226.417 374.903 225.996 375.914 225.334 376.738C224.685 377.552 223.844 378.132 222.809 378.479C221.787 378.827 220.647 378.906 219.39 378.717L215.207 378.086L217.011 366.12L221.194 366.751ZM219.612 376.664C220.869 376.854 221.892 376.657 222.681 376.075C223.47 375.493 223.959 374.579 224.147 373.333C224.334 372.087 224.138 371.064 223.558 370.263C222.979 369.451 222.061 368.951 220.804 368.761L219.106 368.505L217.914 376.408L219.612 376.664Z" fill="black"/>
<path d="M118.95 423.939L117.118 418.839L115.991 418.645L115.191 423.292L112.799 422.881L114.851 410.955L119.328 411.725C120.251 411.884 121.008 412.184 121.6 412.627C122.195 413.057 122.603 413.579 122.826 414.192C123.063 414.796 123.122 415.439 123.004 416.123C122.869 416.909 122.519 417.581 121.953 418.141C121.39 418.689 120.638 419.005 119.697 419.089L121.718 424.416L118.95 423.939ZM116.299 416.851L118.299 417.195C118.948 417.307 119.458 417.236 119.83 416.984C120.204 416.72 120.439 416.309 120.535 415.75C120.629 415.204 120.542 414.755 120.274 414.404C120.008 414.041 119.551 413.804 118.901 413.693L116.902 413.348L116.299 416.851ZM127.857 415.181L127.342 418.171L131.357 418.862L131.031 420.759L127.016 420.068L126.472 423.228L130.999 424.008L130.664 425.955L123.744 424.765L125.8 412.822L132.72 414.012L132.384 415.96L127.857 415.181ZM147.893 416.641L145.84 428.567L143.448 428.156L144.783 420.399L140.253 427.606L138.442 427.294L136.565 418.984L135.23 426.741L132.838 426.33L134.891 414.404L137.607 414.871L139.874 424.392L145.193 416.177L147.893 416.641ZM152.317 419.391L151.803 422.381L155.818 423.072L155.492 424.968L151.476 424.277L150.932 427.438L155.46 428.218L155.125 430.165L148.205 428.974L150.261 417.031L157.18 418.222L156.845 420.17L152.317 419.391ZM172.354 420.851L170.301 432.777L167.909 432.366L169.244 424.609L164.714 431.816L162.903 431.504L161.026 423.194L159.691 430.951L157.299 430.539L159.351 418.614L162.068 419.081L164.335 428.601L169.654 420.387L172.354 420.851ZM180.485 428.232C181.135 428.473 181.63 428.904 181.969 429.525C182.307 430.146 182.416 430.81 182.294 431.516C182.185 432.154 181.928 432.691 181.525 433.126C181.135 433.551 180.62 433.85 179.981 434.021C179.342 434.192 178.618 434.209 177.809 434.069L172.666 433.184L174.718 421.258L179.639 422.105C180.448 422.244 181.12 422.495 181.656 422.857C182.203 423.221 182.585 423.662 182.801 424.18C183.028 424.7 183.09 425.256 182.988 425.848C182.869 426.543 182.581 427.092 182.125 427.494C181.68 427.898 181.133 428.144 180.485 428.232ZM176.264 426.591L178.451 426.967C179.02 427.065 179.48 427.015 179.831 426.818C180.184 426.609 180.401 426.265 180.483 425.786C180.566 425.308 180.476 424.911 180.213 424.596C179.951 424.282 179.535 424.075 178.965 423.977L176.778 423.601L176.264 426.591ZM177.802 432.063C178.383 432.163 178.857 432.103 179.223 431.885C179.6 431.668 179.832 431.31 179.918 430.808C180.006 430.296 179.904 429.868 179.611 429.524C179.321 429.169 178.885 428.942 178.304 428.842L175.946 428.436L175.393 431.648L177.802 432.063ZM187.757 425.49L187.243 428.48L191.258 429.171L190.931 431.068L186.916 430.377L186.372 433.538L190.9 434.317L190.565 436.265L183.645 435.074L185.7 423.131L192.62 424.322L192.285 426.269L187.757 425.49ZM198.889 437.697L197.058 432.597L195.93 432.403L195.13 437.05L192.738 436.639L194.791 424.713L199.267 425.483C200.19 425.642 200.948 425.943 201.54 426.385C202.134 426.815 202.543 427.337 202.766 427.95C203.002 428.554 203.061 429.197 202.944 429.881C202.809 430.667 202.458 431.339 201.893 431.899C201.329 432.447 200.577 432.763 199.636 432.847L201.657 438.174L198.889 437.697ZM196.239 430.609L198.238 430.953C198.887 431.065 199.398 430.994 199.77 430.742C200.144 430.478 200.379 430.067 200.475 429.509C200.569 428.962 200.482 428.513 200.214 428.162C199.948 427.799 199.49 427.562 198.841 427.451L196.842 427.107L196.239 430.609Z" fill="black"/>
</g>
<defs>
<clipPath id="clip0_390_60">
<rect width="478.555" height="469.255" fill="white"/>
</clipPath>
</defs>
</svg>
