<svg width="24" height="23" viewBox="0 0 24 23" fill="none" xmlns="http://www.w3.org/2000/svg">
<path fill-rule="evenodd" clip-rule="evenodd" d="M15.7459 1.26365C16.19 0.819705 16.7922 0.570312 17.4201 0.570312C18.0481 0.570313 18.6503 0.819705 19.0944 1.26365L22.444 4.61326C22.8879 5.05734 23.1373 5.65955 23.1373 6.28748C23.1373 6.9154 22.8879 7.51762 22.444 7.96169L19.0944 11.3113C18.6503 11.7552 18.0481 12.0046 17.4201 12.0046C16.7922 12.0046 16.19 11.7552 15.7459 11.3113L12.3963 7.96169C11.9524 7.51762 11.703 6.9154 11.703 6.28748C11.703 5.65955 11.9524 5.05734 12.3963 4.61326L15.7459 1.26365ZM7.94792 1.55137C8.57596 1.55137 9.17829 1.80086 9.62238 2.24495C10.0665 2.68905 10.316 3.29137 10.316 3.91942V8.65553C10.316 9.28358 10.0665 9.8859 9.62238 10.33C9.17829 10.7741 8.57596 11.0236 7.94792 11.0236H3.21181C2.58376 11.0236 1.98143 10.7741 1.53734 10.33C1.09324 9.8859 0.84375 9.28358 0.84375 8.65553V3.91942C0.84375 3.29137 1.09324 2.68905 1.53734 2.24495C1.98143 1.80086 2.58376 1.55137 3.21181 1.55137H7.94792ZM22.1562 15.7597C22.1562 15.1317 21.9068 14.5293 21.4627 14.0852C21.0186 13.6411 20.4162 13.3916 19.7882 13.3916H15.0521C14.424 13.3916 13.8217 13.6411 13.3776 14.0852C12.9335 14.5293 12.684 15.1317 12.684 15.7597V20.4958C12.684 21.1239 12.9335 21.7262 13.3776 22.1703C13.8217 22.6144 14.424 22.8639 15.0521 22.8639H19.7882C20.4162 22.8639 21.0186 22.6144 21.4627 22.1703C21.9068 21.7262 22.1562 21.1239 22.1562 20.4958V15.7597ZM7.94792 13.3916C8.57596 13.3916 9.17829 13.6411 9.62238 14.0852C10.0665 14.5293 10.316 15.1317 10.316 15.7597V20.4958C10.316 21.1239 10.0665 21.7262 9.62238 22.1703C9.17829 22.6144 8.57596 22.8639 7.94792 22.8639H3.21181C2.58376 22.8639 1.98143 22.6144 1.53734 22.1703C1.09324 21.7262 0.84375 21.1239 0.84375 20.4958V15.7597C0.84375 15.1317 1.09324 14.5293 1.53734 14.0852C1.98143 13.6411 2.58376 13.3916 3.21181 13.3916H7.94792Z" fill="url(#paint0_linear_597_166)"/>
<defs>
<linearGradient id="paint0_linear_597_166" x1="11.9905" y1="0.570313" x2="11.9905" y2="22.8639" gradientUnits="userSpaceOnUse">
<stop offset="0.128005" stop-color="#222E50"/>
<stop offset="0.701633" stop-color="#007991"/>
<stop offset="1" stop-color="#439A86"/>
</linearGradient>
</defs>
</svg>
