<svg width="1142" height="966" viewBox="0 0 1142 966" fill="none" xmlns="http://www.w3.org/2000/svg">
<path d="M1.12663 956.158C-0.59816 961.114 3.13764 966 8.38543 966H1134C1138.42 966 1142 962.418 1142 958V32.0179C1142 30.8476 1142.26 29.6915 1142.75 28.6312L1150.48 12.0992C1153.4 5.85187 1147.75 -0.886658 1141.17 1.18488C1071.31 23.1888 803.975 112.287 721.5 211.719C626.601 326.128 720.331 463.813 608 561.956C494.463 661.151 307.884 677.873 176 752.238C56.4795 819.631 12.3496 923.908 1.12663 956.158Z" fill="url(#paint0_linear_344_41)"/>
<defs>
<linearGradient id="paint0_linear_344_41" x1="578" y1="966" x2="578" y2="-4.00003" gradientUnits="userSpaceOnUse">
<stop offset="0.128005" stop-color="#222E50"/>
<stop offset="0.701633" stop-color="#007991"/>
<stop offset="1" stop-color="#439A86"/>
</linearGradient>
</defs>
</svg>
