<svg width="217" height="63" viewBox="0 0 217 63" fill="none" xmlns="http://www.w3.org/2000/svg">
<g clip-path="url(#clip0_712_24)">
<rect width="217" height="62.0313" fill="white"/>
<g clip-path="url(#clip1_712_24)">
<rect width="62.0313" height="62.0313" fill="black"/>
<path d="M6.10352e-05 31.0117V62.0273H31.0157H62.0314V31.0117V-0.00396347H31.0157H6.10352e-05V31.0117ZM31.636 11.05C36.8591 11.6951 42.1317 14.3005 45.0472 17.6501C47.3672 20.3299 48.8807 23.357 49.7244 27.0417C50.0097 28.3071 50.0469 28.7413 50.0469 30.8876C50.0593 32.7734 50.0097 33.5426 49.836 34.3614C49.3398 36.6565 48.2852 39.175 47.0322 41.0608C46.1514 42.3758 45.6551 42.9217 46.3499 41.8051C47.9379 39.2867 49.0544 36.1975 49.377 33.4557C49.6499 31.2226 49.4018 28.1707 48.7939 26.012L48.583 25.2428L48.4713 25.7638C48.3597 26.3469 48.1984 26.4462 48.0619 26.012C47.9006 25.4785 46.4987 22.7739 45.9404 21.9179C44.1788 19.1761 41.6603 16.9306 38.5835 15.3302C36.8094 14.4121 35.5936 13.9407 33.6831 13.4568C29.589 12.4023 26.2269 12.3899 22.778 13.4072C21.7482 13.7174 19.205 14.9208 18.2621 15.5535C17.2696 16.2234 17.617 15.8636 18.7087 15.0945C20.6565 13.7174 22.9144 12.7125 25.1848 12.2162C26.4378 11.9433 29.589 11.8316 31.115 12.0301C35.7177 12.5884 39.7993 14.3005 43.3227 17.1167L44.1043 17.7494L43.1739 16.881C41.4742 15.2806 39.576 14.0647 37.0328 12.9606C34.4771 11.844 32.1571 11.385 29.1548 11.385C25.1724 11.385 21.4257 12.4891 17.9519 14.6851C16.5996 15.5411 16.6493 15.3798 18.0264 14.4741C21.9964 11.8564 27.3559 10.5165 31.636 11.05ZM16.7485 15.4294C16.7485 15.4542 16.5376 15.6279 16.2895 15.814L15.818 16.1366L16.2523 15.7644C16.6741 15.3798 16.7485 15.3302 16.7485 15.4294ZM14.6395 18.9032C14.6395 18.928 14.5402 19.0272 14.4285 19.1141C14.23 19.2754 14.2176 19.263 14.3789 19.0645C14.5402 18.866 14.6395 18.8039 14.6395 18.9032ZM13.4484 20.578C11.3642 23.7664 10.4585 26.7563 10.3345 30.838C10.26 33.1828 10.3717 34.3366 10.8679 36.2223C11.7984 39.7705 14.8007 43.3311 18.9692 45.8248C22.1576 47.7229 24.3163 48.6906 26.1773 49.0628C26.7604 49.1869 27.2566 49.2985 27.2814 49.3233C27.4055 49.435 26.8596 49.8692 26.6115 49.8692C26.078 49.8692 23.4851 48.9635 22.2073 48.3308C19.1801 46.8173 15.5203 44.1871 13.8827 42.3262C13.2624 41.619 13.374 41.8548 14.1308 42.8597C15.0489 44.0755 16.8602 45.7751 18.1752 46.656C20.7557 48.3805 24.366 49.8444 26.9837 50.229C27.9017 50.3655 31.512 50.229 33.0007 50.0057C37.1072 49.373 39.4396 48.4549 42.2806 46.2962C42.9878 45.7627 42.7024 46.0853 41.9084 46.718C39.8366 48.368 38.1369 49.3109 36.2015 49.8568C33.5218 50.626 31.4375 50.9113 28.4724 50.9113C25.954 50.9237 25.0235 50.7749 22.8276 50.0305C19.7632 49.0008 17.0835 47.3507 14.8876 45.1672C13.4733 43.7529 12.7413 42.748 11.6992 40.7382C10.9424 39.2991 10.6694 38.5299 9.80101 35.54C8.7961 32.0414 8.67204 30.9373 8.9946 28.518C9.40401 25.3544 10.4213 22.5382 11.9225 20.3175C12.5552 19.387 12.6669 19.387 12.0714 20.3051C10.7687 22.3521 9.65213 25.5157 9.29235 28.2203C9.14348 29.3617 9.20551 31.5452 9.41641 32.3764C9.51566 32.7734 9.52807 32.7486 9.54048 32.0538C9.5901 28.8654 10.3345 25.8011 11.6992 23.1337C12.4808 21.6201 13.9943 19.3498 14.23 19.3498C14.2424 19.3498 13.8951 19.9081 13.4484 20.578ZM48.6202 27.3518C48.6202 27.4139 48.5458 27.3642 48.4465 27.2402C48.3473 27.1037 48.2604 26.9052 48.2604 26.806C48.2728 26.5951 48.6202 27.1285 48.6202 27.3518ZM45.7792 42.8473C45.7792 42.8721 45.6799 42.9713 45.5683 43.0582C45.3698 43.2194 45.3574 43.207 45.5186 43.0085C45.6799 42.81 45.7792 42.748 45.7792 42.8473ZM44.2904 44.5717C44.2904 44.5965 44.1664 44.7206 44.0175 44.8571L43.7321 45.0928L43.9678 44.8075C44.1912 44.5469 44.2904 44.4725 44.2904 44.5717Z" fill="white"/>
</g>
<path d="M67.948 38.9297V23.8652H77.2664V25.3501H69.7557V30.6012H76.6208V32.0646H69.7557V37.4448H77.2664V38.9297H67.948ZM83.4096 38.9297L88.015 31.3329L83.4096 23.8652H85.454L89.1556 29.891L92.685 23.8652H94.7079L90.1025 31.419L94.7295 38.9297H92.685L88.9619 32.8824L85.454 38.9297H83.4096ZM101.219 38.9297V23.8652H103.027V38.9297H101.219ZM115.109 39.1879C114.004 39.1879 113.043 38.9871 112.225 38.5854C111.408 38.1836 110.776 37.6241 110.332 36.9067C109.887 36.1894 109.664 35.3573 109.664 34.4103H111.558C111.558 34.9986 111.695 35.5438 111.967 36.0459C112.24 36.5337 112.634 36.9283 113.151 37.2296C113.682 37.5165 114.334 37.66 115.109 37.66C116.128 37.66 116.917 37.4161 117.476 36.9283C118.036 36.4405 118.316 35.8307 118.316 35.099C118.316 34.4964 118.187 34.0158 117.928 33.6571C117.67 33.2841 117.319 32.9828 116.874 32.7533C116.443 32.5237 115.941 32.3228 115.367 32.1507C114.808 31.9785 114.22 31.7848 113.603 31.5696C112.441 31.1679 111.58 30.6729 111.02 30.0847C110.461 29.4821 110.181 28.7002 110.181 27.7389C110.167 26.9355 110.353 26.2253 110.74 25.6084C111.128 24.9771 111.673 24.4893 112.376 24.145C113.093 23.7863 113.94 23.607 114.916 23.607C115.877 23.607 116.709 23.7863 117.412 24.145C118.129 24.5037 118.682 24.9986 119.069 25.6299C119.471 26.2612 119.679 26.9785 119.693 27.782H117.799C117.799 27.3659 117.692 26.957 117.476 26.5553C117.261 26.1392 116.931 25.8021 116.487 25.5438C116.056 25.2856 115.511 25.1565 114.851 25.1565C114.033 25.1421 113.359 25.3501 112.828 25.7806C112.312 26.211 112.053 26.8064 112.053 27.5668C112.053 28.2124 112.233 28.7074 112.591 29.0517C112.964 29.396 113.481 29.683 114.141 29.9125C114.801 30.1277 115.561 30.3788 116.422 30.6658C117.139 30.924 117.785 31.2253 118.359 31.5696C118.933 31.914 119.377 32.3587 119.693 32.9039C120.023 33.4491 120.188 34.1449 120.188 34.9914C120.188 35.7088 120.002 36.3902 119.629 37.0359C119.256 37.6671 118.689 38.1836 117.928 38.5854C117.182 38.9871 116.243 39.1879 115.109 39.1879ZM130.013 38.9297V25.3501H125.515V23.8652H136.318V25.3501H131.82V38.9297H130.013ZM142.615 38.9297V23.8652H151.933V25.3501H144.422V30.6012H151.287V32.0646H144.422V37.4448H151.933V38.9297H142.615ZM158.851 38.9297V23.8652H160.659L168.686 35.9383V23.8652H170.494V38.9297H168.686L160.659 26.8566V38.9297H158.851ZM184.384 39.1879C182.906 39.1879 181.63 38.8651 180.554 38.2195C179.492 37.5595 178.667 36.6485 178.079 35.4864C177.49 34.3099 177.196 32.9469 177.196 31.3975C177.196 29.8623 177.49 28.5137 178.079 27.3516C178.667 26.1751 179.492 25.2569 180.554 24.5969C181.63 23.937 182.906 23.607 184.384 23.607C186.106 23.607 187.505 24.023 188.581 24.8552C189.671 25.673 190.367 26.8207 190.668 28.2985H188.667C188.437 27.3659 187.964 26.6199 187.246 26.0603C186.543 25.4864 185.589 25.1995 184.384 25.1995C183.308 25.1995 182.368 25.4506 181.565 25.9527C180.762 26.4405 180.137 27.1507 179.693 28.0833C179.262 29.0015 179.047 30.1062 179.047 31.3975C179.047 32.6887 179.262 33.8006 179.693 34.7332C180.137 35.6514 180.762 36.3616 181.565 36.8637C182.368 37.3515 183.308 37.5954 184.384 37.5954C185.589 37.5954 186.543 37.3228 187.246 36.7776C187.964 36.2181 188.437 35.4792 188.667 34.561H190.668C190.367 36.0101 189.671 37.1435 188.581 37.9613C187.505 38.779 186.106 39.1879 184.384 39.1879ZM197.355 38.9297V23.8652H206.674V25.3501H199.163V30.6012H206.028V32.0646H199.163V37.4448H206.674V38.9297H197.355Z" fill="black"/>
</g>
<defs>
<clipPath id="clip0_712_24">
<rect width="217" height="62.0313" fill="white"/>
</clipPath>
<clipPath id="clip1_712_24">
<rect width="62.0313" height="62.0313" fill="white"/>
</clipPath>
</defs>
</svg>
