<svg width="184" height="47" viewBox="0 0 184 47" fill="none" xmlns="http://www.w3.org/2000/svg">
<path d="M30.9928 1V14.7944L21.8115 12.3311L30.9928 1Z" fill="url(#paint0_linear_344_17)"/>
<path d="M30.9473 0.953125V14.7475L40.1287 12.2842L30.9473 0.953125Z" fill="url(#paint1_linear_344_17)"/>
<path d="M9.2261 27.6016L30.4999 33.3343V46.8599L0 38.7535L9.2261 27.6016Z" fill="url(#paint2_linear_344_17)"/>
<path d="M52.0422 27.6445L30.4997 33.3325V46.8133L61.2683 38.7965L52.0422 27.6445Z" fill="url(#paint3_linear_344_17)"/>
<path d="M20.0201 14.1641L30.7242 17.12V30.8248L10.794 25.4056L20.0201 14.1641Z" fill="url(#paint4_linear_344_17)"/>
<path d="M41.3817 14.207L30.6777 17.163V30.8678L50.6078 25.4485L41.3817 14.207Z" fill="url(#paint5_linear_344_17)"/>
<path d="M64.1093 30.3474C64.0522 30.2903 64.0237 30.138 64.0237 29.8906C64.0237 29.6432 64.0522 29.5195 64.1093 29.5195C64.2806 29.5195 64.509 29.4909 64.7944 29.4338C65.0799 29.3577 65.3464 29.2721 65.5938 29.1769C65.8602 29.0818 66.022 28.9771 66.0791 28.8629C66.2123 28.6535 66.2789 27.7591 66.2789 26.1794V15.3885C66.2789 14.8366 66.2599 14.3513 66.2218 13.9326C66.2028 13.5139 66.1552 13.1808 66.0791 12.9334C66.041 12.8192 65.8888 12.7145 65.6223 12.6194C65.3749 12.5242 65.099 12.4481 64.7944 12.391C64.509 12.3339 64.2806 12.3054 64.1093 12.3054C64.0332 12.3054 63.9951 12.1912 63.9951 11.9628C63.9951 11.7154 64.0332 11.5536 64.1093 11.4775C64.6041 11.4965 65.1275 11.5155 65.6794 11.5346C66.2504 11.5346 66.8594 11.5346 67.5065 11.5346L69.9044 11.506H71.5316C71.7791 11.506 72.0265 11.5155 72.2739 11.5346C72.5403 11.5536 72.7973 11.5822 73.0447 11.6202C73.8059 11.7534 74.5196 12.0104 75.1857 12.391C75.8709 12.7526 76.4228 13.2474 76.8415 13.8755C77.2792 14.5035 77.4981 15.2743 77.4981 16.1878C77.4981 16.8539 77.2792 17.4915 76.8415 18.1005C76.4038 18.6905 75.9946 19.0997 75.6139 19.328C75.2523 19.5564 74.9383 19.7182 74.6719 19.8133C74.5196 19.8704 74.472 19.9275 74.5291 19.9846C74.9098 20.0417 75.338 20.213 75.8138 20.4985C76.2896 20.784 76.7463 21.1551 77.184 21.6118C77.6218 22.0496 77.9834 22.5539 78.2689 23.1248C78.5734 23.6958 78.7256 24.2953 78.7256 24.9233C78.7256 26.0081 78.4211 26.9502 77.8121 27.7495C77.2221 28.5489 76.3847 29.1674 75.2999 29.6051C74.2151 30.0429 72.94 30.2617 71.4746 30.2617H67.5636L64.1093 30.3474ZM70.6467 19.6135C71.2557 19.6135 71.7886 19.585 72.2453 19.5279C73.0256 19.4517 73.6727 19.1853 74.1866 18.7285C74.7195 18.2527 74.9859 17.6247 74.9859 16.8444C74.9859 15.5312 74.6528 14.513 73.9867 13.7898C73.3397 13.0476 72.369 12.6765 71.0749 12.6765C70.1804 12.6765 69.5048 12.7431 69.048 12.8763C68.9338 12.8953 68.8767 12.981 68.8767 13.1332L68.7625 16.0165V19.4137C68.7625 19.5469 69.3906 19.6135 70.6467 19.6135ZM70.7609 28.9771C71.2367 28.9771 71.7029 28.939 72.1597 28.8629C72.6355 28.7868 73.1969 28.6345 73.844 28.4061C74.4911 28.1968 75.0144 27.8257 75.4141 27.2928C75.8138 26.7409 76.0136 26.0557 76.0136 25.2374C76.0136 24.419 75.8328 23.6768 75.4712 23.0107C75.1096 22.3446 74.5577 21.8117 73.8154 21.412C73.0732 21.0123 72.1121 20.8125 70.9322 20.8125C70.7228 20.8125 70.4468 20.822 70.1043 20.8411C69.7617 20.8601 69.3525 20.8886 68.8767 20.9267C68.8006 21.136 68.7625 21.4501 68.7625 21.8688V26.0367C68.7625 27.4831 68.9148 28.33 69.2193 28.5774C69.5238 28.8439 70.0377 28.9771 70.7609 28.9771ZM80.4099 30.3474C80.3338 30.2712 80.2957 30.1095 80.2957 29.8621C80.2957 29.6337 80.3338 29.5195 80.4099 29.5195C80.5622 29.5195 80.7715 29.4909 81.038 29.4338C81.3044 29.3767 81.5518 29.3006 81.7802 29.2055C82.0086 29.1103 82.1323 29.0247 82.1513 28.9485C82.2274 28.6821 82.275 28.3776 82.294 28.035C82.3321 27.6924 82.3511 27.3308 82.3511 26.9502V14.5892C82.3511 13.9421 82.294 13.3331 82.1799 12.7621C82.1037 12.4576 81.6184 12.3054 80.7239 12.3054H80.467C80.3528 12.3054 80.2957 12.2007 80.2957 11.9913C80.2957 11.6868 80.3528 11.5346 80.467 11.5346C81.6089 11.4014 82.4558 11.2491 83.0077 11.0778C83.5597 10.9065 83.9403 10.7543 84.1496 10.6211L84.4351 10.4498H84.4922C84.5683 10.4498 84.6445 10.5069 84.7206 10.6211C84.7967 10.7162 84.8443 10.8114 84.8633 10.9065C84.654 11.5346 84.5493 12.3625 84.5493 13.3902V26.4078C84.5493 26.9597 84.5683 27.445 84.6064 27.8637C84.6445 28.2824 84.7016 28.644 84.7777 28.9485C84.8157 29.0247 84.949 29.1103 85.1773 29.2055C85.4057 29.3006 85.6531 29.3767 85.9196 29.4338C86.186 29.4909 86.3763 29.5195 86.4905 29.5195C86.5476 29.5195 86.5857 29.6337 86.6047 29.8621C86.6237 30.0904 86.6142 30.2522 86.5762 30.3474L83.5216 30.2046L80.4099 30.3474ZM94.3411 30.4616C93.1992 30.4616 92.1524 30.1761 91.2009 29.6051C90.2493 29.0342 89.488 28.2634 88.9171 27.2928C88.3651 26.3222 88.0892 25.2564 88.0892 24.0955C88.0892 22.9155 88.3556 21.8497 88.8885 20.8981C89.4404 19.9466 90.1827 19.1948 91.1152 18.6429C92.0478 18.0719 93.104 17.7865 94.284 17.7865C95.4259 17.7865 96.4631 18.0719 97.3957 18.6429C98.3472 19.2138 99.099 19.9751 99.6509 20.9267C100.222 21.8783 100.507 22.9345 100.507 24.0955C100.507 25.2564 100.231 26.3222 99.6795 27.2928C99.1275 28.2634 98.3853 29.0342 97.4528 29.6051C96.5392 30.1761 95.502 30.4616 94.3411 30.4616ZM94.598 29.3482C95.2831 29.3482 95.8826 29.1293 96.3965 28.6916C96.9104 28.2539 97.31 27.6639 97.5955 26.9217C97.9 26.1794 98.0523 25.3706 98.0523 24.4951C98.0523 23.4674 97.8619 22.5349 97.4813 21.6975C97.1007 20.8411 96.5963 20.1654 95.9683 19.6706C95.3593 19.1568 94.6932 18.8998 93.97 18.8998C93.3039 18.8998 92.7044 19.1187 92.1715 19.5564C91.6576 19.9751 91.258 20.5461 90.9725 21.2693C90.687 21.9734 90.5443 22.7728 90.5443 23.6673C90.5443 24.695 90.7251 25.6465 91.0867 26.522C91.4673 27.3784 91.9621 28.0636 92.5711 28.5774C93.1992 29.0913 93.8748 29.3482 94.598 29.3482ZM108.9 30.4616C107.758 30.4616 106.712 30.1761 105.76 29.6051C104.808 29.0342 104.047 28.2634 103.476 27.2928C102.924 26.3222 102.648 25.2564 102.648 24.0955C102.648 22.9155 102.915 21.8497 103.448 20.8981C104 19.9466 104.742 19.1948 105.674 18.6429C106.607 18.0719 107.663 17.7865 108.843 17.7865C109.985 17.7865 111.022 18.0719 111.955 18.6429C112.906 19.2138 113.658 19.9751 114.21 20.9267C114.781 21.8783 115.067 22.9345 115.067 24.0955C115.067 25.2564 114.791 26.3222 114.239 27.2928C113.687 28.2634 112.945 29.0342 112.012 29.6051C111.098 30.1761 110.061 30.4616 108.9 30.4616ZM109.157 29.3482C109.842 29.3482 110.442 29.1293 110.956 28.6916C111.47 28.2539 111.869 27.6639 112.155 26.9217C112.459 26.1794 112.611 25.3706 112.611 24.4951C112.611 23.4674 112.421 22.5349 112.041 21.6975C111.66 20.8411 111.156 20.1654 110.527 19.6706C109.918 19.1568 109.252 18.8998 108.529 18.8998C107.863 18.8998 107.264 19.1187 106.731 19.5564C106.217 19.9751 105.817 20.5461 105.532 21.2693C105.246 21.9734 105.103 22.7728 105.103 23.6673C105.103 24.695 105.284 25.6465 105.646 26.522C106.027 27.3784 106.521 28.0636 107.13 28.5774C107.758 29.0913 108.434 29.3482 109.157 29.3482ZM117.036 30.3474C116.96 30.2712 116.922 30.1095 116.922 29.8621C116.922 29.6337 116.96 29.5195 117.036 29.5195C117.189 29.5195 117.398 29.4909 117.664 29.4338C117.931 29.3767 118.178 29.3006 118.407 29.2055C118.635 29.1103 118.759 29.0247 118.778 28.9485C118.854 28.6821 118.901 28.3776 118.92 28.035C118.959 27.6924 118.978 27.3308 118.978 26.9502V21.5547C118.978 20.8315 118.844 20.3177 118.578 20.0132C118.388 19.7848 118.159 19.6325 117.893 19.5564C117.645 19.4803 117.417 19.4422 117.208 19.4422C117.017 19.4232 116.922 19.3946 116.922 19.3566C116.922 18.8998 116.979 18.6619 117.093 18.6429C118.102 18.4906 118.892 18.3574 119.463 18.2432C120.053 18.129 120.5 18.0339 120.805 17.9578L121.176 17.8721C121.252 17.8531 121.299 17.9292 121.318 18.1005C121.337 18.2527 121.337 18.3765 121.318 18.4716C121.28 18.7381 121.252 18.9664 121.233 19.1568C121.214 19.3471 121.204 19.4993 121.204 19.6135C121.204 19.6896 121.223 19.7277 121.261 19.7277C121.28 19.7277 121.309 19.7087 121.347 19.6706C121.785 19.2138 122.375 18.7856 123.117 18.386C123.878 17.9673 124.601 17.7579 125.287 17.7579C126.048 17.7579 126.676 17.9673 127.171 18.386C127.685 18.7856 128.037 19.2519 128.227 19.7848C129.673 18.4335 131.148 17.7579 132.652 17.7579C135.05 17.7579 136.249 19.585 136.249 23.239V26.4078C136.249 26.9597 136.268 27.445 136.306 27.8637C136.344 28.2824 136.401 28.644 136.477 28.9485C136.515 29.0247 136.648 29.1103 136.877 29.2055C137.105 29.3006 137.353 29.3767 137.619 29.4338C137.885 29.4909 138.076 29.5195 138.19 29.5195C138.247 29.5195 138.285 29.6337 138.304 29.8621C138.323 30.0904 138.314 30.2522 138.276 30.3474L135.221 30.2046L132.109 30.3474C132.033 30.2712 131.995 30.1095 131.995 29.8621C131.995 29.6337 132.033 29.5195 132.109 29.5195C132.262 29.5195 132.471 29.4909 132.737 29.4338C133.004 29.3767 133.251 29.3006 133.48 29.2055C133.708 29.1103 133.832 29.0247 133.851 28.9485C133.927 28.6821 133.974 28.3966 133.994 28.0921C134.032 27.7686 134.051 27.445 134.051 27.1215V23.8956C134.051 20.9648 133.09 19.4993 131.167 19.4993C130.711 19.4993 130.282 19.604 129.883 19.8133C129.483 20.0037 129.159 20.2225 128.912 20.4699C128.684 20.7173 128.57 20.9362 128.57 21.1265C128.627 21.4881 128.665 21.8592 128.684 22.2399C128.703 22.6015 128.712 23.0011 128.712 23.4389V26.6647C128.712 27.1405 128.731 27.5687 128.769 27.9494C128.807 28.311 128.864 28.644 128.941 28.9485C128.979 29.0247 129.112 29.1103 129.34 29.2055C129.569 29.3006 129.816 29.3767 130.083 29.4338C130.349 29.4909 130.539 29.5195 130.653 29.5195C130.711 29.5195 130.749 29.6337 130.768 29.8621C130.787 30.0904 130.777 30.2522 130.739 30.3474L127.685 30.2046L124.573 30.3474C124.497 30.2712 124.459 30.1095 124.459 29.8621C124.459 29.6337 124.497 29.5195 124.573 29.5195C124.725 29.5195 124.934 29.4909 125.201 29.4338C125.467 29.3767 125.715 29.3006 125.943 29.2055C126.172 29.1103 126.295 29.0247 126.314 28.9485C126.39 28.6821 126.438 28.3776 126.457 28.035C126.495 27.6924 126.514 27.3308 126.514 26.9502V24.0384C126.514 21.0123 125.601 19.4993 123.774 19.4993C123.393 19.4993 123.003 19.604 122.603 19.8133C122.203 20.0037 121.861 20.2511 121.575 20.5556C121.309 20.8411 121.176 21.117 121.176 21.3835V26.4078C121.176 26.9597 121.195 27.445 121.233 27.8637C121.271 28.2824 121.328 28.644 121.404 28.9485C121.442 29.0247 121.575 29.1103 121.804 29.2055C122.032 29.3006 122.28 29.3767 122.546 29.4338C122.812 29.4909 123.003 29.5195 123.117 29.5195C123.174 29.5195 123.212 29.6337 123.231 29.8621C123.25 30.0904 123.241 30.2522 123.203 30.3474L120.148 30.2046L117.036 30.3474ZM140.017 30.3474C139.941 30.2712 139.903 30.1095 139.903 29.8621C139.903 29.6337 139.941 29.5195 140.017 29.5195C140.169 29.5195 140.379 29.4909 140.645 29.4338C140.912 29.3767 141.159 29.3006 141.387 29.2055C141.616 29.1103 141.739 29.0247 141.758 28.9485C141.835 28.6821 141.882 28.3776 141.901 28.035C141.939 27.6924 141.958 27.3308 141.958 26.9502V21.5547C141.958 20.8315 141.825 20.3177 141.559 20.0132C141.368 19.7658 141.14 19.6135 140.873 19.5564C140.607 19.4803 140.379 19.4422 140.188 19.4422C139.998 19.4232 139.903 19.3946 139.903 19.3566C139.903 18.8998 139.96 18.6619 140.074 18.6429C141.083 18.4906 141.854 18.3669 142.386 18.2718C142.919 18.1576 143.395 18.0529 143.814 17.9578L144.156 17.8721C144.233 17.8531 144.28 17.9292 144.299 18.1005C144.318 18.2718 144.318 18.3955 144.299 18.4716C144.261 18.8522 144.223 19.2138 144.185 19.5564C144.166 19.899 144.156 20.2225 144.156 20.527V26.4078C144.156 26.9597 144.175 27.445 144.214 27.8637C144.252 28.2824 144.309 28.644 144.385 28.9485C144.423 29.0247 144.556 29.1103 144.784 29.2055C145.013 29.3006 145.26 29.3767 145.527 29.4338C145.793 29.4909 145.983 29.5195 146.098 29.5195C146.155 29.5195 146.193 29.6337 146.212 29.8621C146.231 30.0904 146.221 30.2522 146.183 30.3474L143.129 30.2046L140.017 30.3474ZM142.843 14.7604C142.463 14.7604 142.13 14.6177 141.844 14.3322C141.559 14.0468 141.416 13.7137 141.416 13.3331C141.416 12.9334 141.559 12.6003 141.844 12.3339C142.13 12.0484 142.463 11.9057 142.843 11.9057C143.243 11.9057 143.576 12.0484 143.842 12.3339C144.128 12.6003 144.271 12.9334 144.271 13.3331C144.271 13.7137 144.128 14.0468 143.842 14.3322C143.576 14.6177 143.243 14.7604 142.843 14.7604ZM147.896 30.3474C147.839 30.2903 147.801 30.138 147.782 29.8906C147.782 29.6432 147.82 29.5195 147.896 29.5195C148.048 29.5195 148.248 29.4909 148.496 29.4338C148.743 29.3767 148.971 29.3006 149.181 29.2055C149.409 29.1103 149.533 29.0247 149.552 28.9485C149.647 28.5679 149.714 28.1682 149.752 27.7495C149.809 27.3308 149.837 26.8836 149.837 26.4078V19.8419C149.837 19.7087 149.79 19.6421 149.695 19.6421H148.182C148.125 19.6421 148.096 19.585 148.096 19.4708C148.096 19.2995 148.239 19.0616 148.524 18.7571C148.829 18.4526 149.162 18.3003 149.523 18.3003H149.695C149.79 18.3003 149.837 18.2432 149.837 18.129V17.7579C149.837 16.7492 149.999 15.8072 150.323 14.9317C150.646 14.0563 151.074 13.276 151.607 12.5908C152.159 11.9057 152.768 11.3728 153.434 10.9922C154.119 10.6115 154.814 10.4212 155.518 10.4212C156.908 10.4212 157.812 10.7923 158.23 11.5346C158.23 12.7336 157.888 13.3331 157.203 13.3331C156.993 13.3331 156.803 13.2474 156.632 13.0761C156.46 12.8858 156.28 12.6765 156.089 12.4481C155.918 12.2007 155.709 11.9913 155.461 11.82C155.233 11.6297 154.957 11.5346 154.633 11.5346C154.081 11.5346 153.606 11.7725 153.206 12.2483C152.806 12.7241 152.502 13.3521 152.292 14.1324C152.102 14.9127 152.007 15.7691 152.007 16.7017V18.1576C152.007 18.2527 152.055 18.3003 152.15 18.3003H155.318C155.414 18.3003 155.461 18.3669 155.461 18.5002C155.461 18.8047 155.347 19.1853 155.119 19.6421H152.178C152.064 19.6421 152.007 19.6992 152.007 19.8133V26.4078C152.007 27.4355 152.093 28.2824 152.264 28.9485C152.302 29.0247 152.426 29.1103 152.635 29.2055C152.844 29.3006 153.073 29.3767 153.32 29.4338C153.568 29.4909 153.748 29.5195 153.863 29.5195C153.92 29.5195 153.958 29.6337 153.977 29.8621C153.996 30.0904 153.986 30.2522 153.948 30.3474L150.894 30.2046L147.896 30.3474ZM159.058 36.742C158.659 36.742 158.364 36.6183 158.173 36.3709C157.983 36.1235 157.888 35.8761 157.888 35.6286C157.888 35.229 158.021 34.9245 158.287 34.7151C159.867 34.7151 160.914 33.8968 161.428 32.26C161.523 31.9746 161.637 31.632 161.77 31.2323C161.903 30.8327 162.008 30.5091 162.084 30.2617L158.002 20.2701C157.907 20.0417 157.812 19.8514 157.716 19.6992C157.621 19.5279 157.526 19.3946 157.431 19.2995C157.26 19.1282 156.993 18.9855 156.632 18.8713C156.289 18.7571 156.013 18.7 155.804 18.7C155.728 18.7 155.69 18.5763 155.69 18.3289C155.69 18.1005 155.728 17.9482 155.804 17.8721C156.318 17.8911 156.822 17.9197 157.317 17.9578C157.831 17.9768 158.354 17.9863 158.887 17.9863C159.496 17.9863 160.019 17.9768 160.457 17.9578C160.895 17.9197 161.294 17.8911 161.656 17.8721C161.694 18.0244 161.713 18.1671 161.713 18.3003C161.713 18.5668 161.675 18.7 161.599 18.7C161.523 18.7 161.38 18.7285 161.171 18.7856C160.98 18.8427 160.79 18.9189 160.6 19.014C160.409 19.0901 160.295 19.1853 160.257 19.2995V19.3566C160.257 19.6801 161.275 22.1638 163.312 26.8075L165.481 20.5556C165.615 20.1749 165.681 19.88 165.681 19.6706C165.681 19.3851 165.529 19.1568 165.224 18.9855C164.939 18.7951 164.549 18.7 164.054 18.7C163.978 18.7 163.94 18.5763 163.94 18.3289C163.94 18.1005 163.978 17.9482 164.054 17.8721C164.301 17.8911 164.673 17.9197 165.167 17.9578C165.662 17.9958 166.138 18.0149 166.595 18.0149C167.013 18.0149 167.47 17.9958 167.965 17.9578C168.46 17.9197 168.831 17.8911 169.078 17.8721C169.116 18.0244 169.135 18.1671 169.135 18.3003C169.135 18.5668 169.097 18.7 169.021 18.7C168.774 18.7 168.441 18.7856 168.022 18.9569C167.603 19.1282 167.318 19.4042 167.166 19.7848L162.056 33.5732C161.618 34.7532 161.123 35.5715 160.571 36.0283C160.019 36.5041 159.515 36.742 159.058 36.742Z" fill="url(#paint6_linear_344_17)"/>
<defs>
<linearGradient id="paint0_linear_344_17" x1="21.9837" y1="7.91894" x2="30.9928" y2="7.91894" gradientUnits="userSpaceOnUse">
<stop stop-color="#222E50"/>
<stop offset="0.489449" stop-color="#007991"/>
<stop offset="1" stop-color="#439A86"/>
</linearGradient>
<linearGradient id="paint1_linear_344_17" x1="39.9565" y1="7.87206" x2="30.9473" y2="7.87206" gradientUnits="userSpaceOnUse">
<stop stop-color="#222E50"/>
<stop offset="0.489449" stop-color="#007991"/>
<stop offset="1" stop-color="#439A86"/>
</linearGradient>
<linearGradient id="paint2_linear_344_17" x1="0.571873" y1="37.2611" x2="30.4999" y2="37.2611" gradientUnits="userSpaceOnUse">
<stop stop-color="#222E50"/>
<stop offset="0.489449" stop-color="#007991"/>
<stop offset="1" stop-color="#439A86"/>
</linearGradient>
<linearGradient id="paint3_linear_344_17" x1="60.6914" y1="37.2592" x2="30.4997" y2="37.2592" gradientUnits="userSpaceOnUse">
<stop stop-color="#222E50"/>
<stop offset="0.489449" stop-color="#007991"/>
<stop offset="1" stop-color="#439A86"/>
</linearGradient>
<linearGradient id="paint4_linear_344_17" x1="11.1677" y1="22.5207" x2="30.7242" y2="22.5207" gradientUnits="userSpaceOnUse">
<stop stop-color="#222E50"/>
<stop offset="0.489449" stop-color="#007991"/>
<stop offset="1" stop-color="#439A86"/>
</linearGradient>
<linearGradient id="paint5_linear_344_17" x1="50.2342" y1="22.5637" x2="30.6777" y2="22.5637" gradientUnits="userSpaceOnUse">
<stop stop-color="#222E50"/>
<stop offset="0.489449" stop-color="#007991"/>
<stop offset="1" stop-color="#439A86"/>
</linearGradient>
<linearGradient id="paint6_linear_344_17" x1="120.936" y1="10.7335" x2="120.936" y2="31.2255" gradientUnits="userSpaceOnUse">
<stop offset="0.124498" stop-color="#222E50"/>
<stop offset="0.619343" stop-color="#007991"/>
<stop offset="1" stop-color="#439A86"/>
</linearGradient>
</defs>
</svg>
