<svg width="24" height="25" viewBox="0 0 24 25" fill="none" xmlns="http://www.w3.org/2000/svg">
<path d="M11.2 0.416016V3.61602H12.8V0.416016H11.2ZM5.3664 6.24962L2.9664 3.84962L1.8336 4.98242L4.2336 7.38242L5.3664 6.24962ZM19.7664 7.38242L22.1664 4.98242L21.0336 3.84962L18.6336 6.24962L19.7664 7.38242ZM12 5.21602C10.4748 5.21576 9.00069 5.76583 7.84849 6.76519C6.69629 7.76455 5.94336 9.14608 5.728 10.656L5.712 10.768C5.59037 11.6092 5.63963 12.4663 5.85681 13.288C6.07399 14.1097 6.45464 14.8792 6.976 15.5504C7.5888 16.3424 8 17.0992 8 17.8576V20.416C8 20.6282 8.08429 20.8317 8.23431 20.9817C8.38434 21.1317 8.58783 21.216 8.8 21.216H15.2C15.4122 21.216 15.6157 21.1317 15.7657 20.9817C15.9157 20.8317 16 20.6282 16 20.416V17.8576C16 17.0992 16.4112 16.3424 17.024 15.5504C18.032 14.248 18.5408 12.5504 18.288 10.7664L18.272 10.6544C18.0563 9.14477 17.3032 7.76362 16.151 6.76459C14.9989 5.76555 13.525 5.21571 12 5.21602ZM0 13.216H3.2V11.616H0V13.216ZM20.8 13.216H24V11.616H20.8V13.216ZM9.6 24.416H14.4V22.816H9.6V24.416Z" fill="url(#paint0_linear_597_168)"/>
<defs>
<linearGradient id="paint0_linear_597_168" x1="12" y1="0.416016" x2="12" y2="24.416" gradientUnits="userSpaceOnUse">
<stop offset="0.128005" stop-color="#222E50"/>
<stop offset="0.701633" stop-color="#007991"/>
<stop offset="1" stop-color="#439A86"/>
</linearGradient>
</defs>
</svg>
